<svg width="240" height="240" viewBox="0 0 240 240" xmlns="http://www.w3.org/2000/svg" role="img" aria-labelledby="title desc">
  <title id="title">Nimbus Nook logo</title>
  <desc id="desc">A smiling cloud nested inside a journal with a tiny cupcake star.</desc>
  <defs>
    <linearGradient id="cover" x1="35" y1="35" x2="205" y2="210" gradientUnits="userSpaceOnUse">
      <stop stop-color="#3A9B9B"/>
      <stop offset="0.52" stop-color="#8267A6"/>
      <stop offset="1" stop-color="#EE7B6A"/>
    </linearGradient>
    <linearGradient id="cloud" x1="70" y1="62" x2="175" y2="155" gradientUnits="userSpaceOnUse">
      <stop stop-color="#FFFFFF"/>
      <stop offset="1" stop-color="#DFF7FF"/>
    </linearGradient>
    <filter id="shadow" x="-20%" y="-20%" width="140%" height="150%">
      <feDropShadow dx="0" dy="14" stdDeviation="14" flood-color="#20323A" flood-opacity="0.18"/>
    </filter>
  </defs>
  <rect x="42" y="34" width="154" height="176" rx="24" fill="url(#cover)" filter="url(#shadow)"/>
  <path d="M72 35h20v174H72z" fill="#20323A" opacity="0.18"/>
  <path d="M95 182c18 12 54 12 72 0" fill="none" stroke="#FFF8EE" stroke-width="8" stroke-linecap="round" opacity="0.78"/>
  <g filter="url(#shadow)">
    <path d="M85 130c-18 0-32-13-32-30s14-31 33-31c7-19 25-31 46-31 25 0 46 18 50 42 18 3 31 17 31 35 0 20-17 36-38 36H87c-1 0-2 0-2-21z" fill="url(#cloud)"/>
    <circle cx="108" cy="111" r="5" fill="#3A9B9B"/>
    <circle cx="151" cy="111" r="5" fill="#3A9B9B"/>
    <path d="M119 126c8 7 20 7 28 0" fill="none" stroke="#3A9B9B" stroke-width="5" stroke-linecap="round"/>
  </g>
  <g transform="translate(152 48) rotate(9)">
    <path d="M18 31h26l-4 24H22z" fill="#F6C85F"/>
    <path d="M17 30c1-13 28-13 29 0z" fill="#FFF8EE"/>
    <path d="M24 22c1-8 13-8 14 0" fill="none" stroke="#EE7B6A" stroke-width="5" stroke-linecap="round"/>
    <circle cx="24" cy="35" r="2" fill="#8267A6"/>
    <circle cx="33" cy="39" r="2" fill="#3A9B9B"/>
    <circle cx="39" cy="34" r="2" fill="#EE7B6A"/>
  </g>
  <path d="M49 61c-14 4-22 16-21 30" fill="none" stroke="#F6C85F" stroke-width="8" stroke-linecap="round"/>
  <path d="M194 157c12-3 21-13 23-25" fill="none" stroke="#BFE8CF" stroke-width="8" stroke-linecap="round"/>
</svg>
